{
  "accessors": [
    {
      "bufferView": 2,
      "componentType": 5126,
      "count": 64767,
      "max": [
        1.8337160348892212,
        7.5924811363220215,
        14.262565612792969
      ],
      "min": [
        -7.174292087554932,
        4.268680095672607,
        0.09142900258302689
      ],
      "type": "VEC3"
    },
    {
      "bufferView": 2,
      "byteOffset": 777204,
      "componentType": 5126,
      "count": 64767,
      "max": [
        0.9999944567680359,
        0.9999856352806091,
        0.9999485015869141
      ],
      "min": [
        -0.9999986290931702,
        -1.0,
        -0.9999997615814209
      ],
      "type": "VEC3"
    },
    {
      "bufferView": 1,
      "componentType": 5126,
      "count": 64767,
      "max": [
        0.998753011226654,
        0.9996100068092346
      ],
      "min": [
        0.0013200000394135714,
        0.003478999948129058
      ],
      "type": "VEC2"
    },
    {
      "bufferView": 0,
      "componentType": 5125,
      "count": 360447,
      "type": "SCALAR"
    },
    {
      "bufferView": 2,
      "byteOffset": 1554408,
      "componentType": 5126,
      "count": 65532,
      "max": [
        1.8173660039901733,
        7.537069797515869,
        14.0420503616333
      ],
      "min": [
        -6.294702053070068,
        4.218441009521484,
        0.21881400048732758
      ],
      "type": "VEC3"
    },
    {
      "bufferView": 2,
      "byteOffset": 2340792,
      "componentType": 5126,
      "count": 65532,
      "max": [
        0.999981701374054,
        0.9998500347137451,
        0.9999943971633911
      ],
      "min": [
        -0.9999995231628418,
        -0.9999997615814209,
        -0.9999998211860657
      ],
      "type": "VEC3"
    },
    {
      "bufferView": 1,
      "byteOffset": 518136,
      "componentType": 5126,
      "count": 65532,
      "max": [
        1.999127984046936,
        1.0040210485458374
      ],
      "min": [
        1.0025440454483032,
        0.0018469999777153134
      ],
      "type": "VEC2"
    },
    {
      "bufferView": 0,
      "byteOffset": 1441788,
      "componentType": 5125,
      "count": 343956,
      "type": "SCALAR"
    },
    {
      "bufferView": 2,
      "byteOffset": 3127176,
      "componentType": 5126,
      "count": 5728,
      "max": [
        0.09251700341701508,
        6.976627826690674,
        14.115873336791992
      ],
      "min": [
        -3.5984089374542236,
        5.731729030609131,
        3.4053940773010254
      ],
      "type": "VEC3"
    },
    {
      "bufferView": 2,
      "byteOffset": 3195912,
      "componentType": 5126,
      "count": 5728,
      "max": [
        0.9999837875366211,
        0.9992758631706238,
        0.9999943971633911
      ],
      "min": [
        -0.9999995231628418,
        -0.9985761046409607,
        -0.9999760389328003
      ],
      "type": "VEC3"
    },
    {
      "bufferView": 1,
      "byteOffset": 1042392,
      "componentType": 5126,
      "count": 5728,
      "max": [
        1.9938910007476807,
        0.9995779991149902
      ],
      "min": [
        1.0049749612808228,
        0.08955299854278564
      ],
      "type": "VEC2"
    },
    {
      "bufferView": 0,
      "byteOffset": 2817612,
      "componentType": 5125,
      "count": 17250,
      "type": "SCALAR"
    },
    {
      "bufferView": 2,
      "byteOffset": 3264648,
      "componentType": 5126,
      "count": 65532,
      "max": [
        1.8355729579925537,
        7.543635845184326,
        14.264281272888184
      ],
      "min": [
        -6.583810806274414,
        4.221447944641113,
        0.18185700476169586
      ],
      "type": "VEC3"
    },
    {
      "bufferView": 2,
      "byteOffset": 4051032,
      "componentType": 5126,
      "count": 65532,
      "max": [
        0.9999939799308777,
        0.9999954104423523,
        0.9999521374702454
      ],
      "min": [
        -0.9999976754188538,
        -0.9999999403953552,
        -0.9999778866767883
      ],
      "type": "VEC3"
    },
    {
      "bufferView": 1,
      "byteOffset": 1088216,
      "componentType": 5126,
      "count": 65532,
      "max": [
        2.9972689151763916,
        1.00033700466156
      ],
      "min": [
        2.0023300647735596,
        0.0018350000027567148
      ],
      "type": "VEC2"
    },
    {
      "bufferView": 0,
      "byteOffset": 2886612,
      "componentType": 5125,
      "count": 264738,
      "type": "SCALAR"
    },
    {
      "bufferView": 2,
      "byteOffset": 4837416,
      "componentType": 5126,
      "count": 3922,
      "max": [
        0.08488400280475616,
        6.30347204208374,
        10.470121383666992
      ],
      "min": [
        -3.633136034011841,
        5.3735198974609375,
        3.6150100231170654
      ],
      "type": "VEC3"
    },
    {
      "bufferView": 2,
      "byteOffset": 4884480,
      "componentType": 5126,
      "count": 3922,
      "max": [
        0.9979822635650635,
        0.9963188171386719,
        0.9999369382858276
      ],
      "min": [
        -0.999930202960968,
        -0.9998334050178528,
        -0.9983961582183838
      ],
      "type": "VEC3"
    },
    {
      "bufferView": 1,
      "byteOffset": 1612472,
      "componentType": 5126,
      "count": 3922,
      "max": [
        2.9940309524536133,
        0.9992430210113525
      ],
      "min": [
        2.0067479610443115,
        0.003918999806046486
      ],
      "type": "VEC2"
    },
    {
      "bufferView": 0,
      "byteOffset": 3945564,
      "componentType": 5125,
      "count": 12609,
      "type": "SCALAR"
    }
  ],
  "asset": {
    "extras": {
      "author": "Nikitos & 3130 (https://sketchfab.com/vrcityphoto)",
      "license": "CC-BY-4.0 (http://creativecommons.org/licenses/by/4.0/)",
      "source": "https://sketchfab.com/3d-models/car-range-rover-small-red-419f62ef87994a1cbd9b5145d8d68ebf",
      "title": "car Range Rover small Red"
    },
    "generator": "Sketchfab-12.68.0",
    "version": "2.0"
  },
  "bufferViews": [
    {
      "buffer": 0,
      "byteLength": 3996000,
      "name": "floatBufferViews",
      "target": 34963
    },
    {
      "buffer": 0,
      "byteLength": 1643848,
      "byteOffset": 3996000,
      "byteStride": 8,
      "name": "floatBufferViews",
      "target": 34962
    },
    {
      "buffer": 0,
      "byteLength": 4931544,
      "byteOffset": 5639848,
      "byteStride": 12,
      "name": "floatBufferViews",
      "target": 34962
    }
  ],
  "buffers": [
    {
      "byteLength": 10571392,
      "uri": "scene.bin"
    }
  ],
  "extensionsUsed": [
    "KHR_materials_unlit"
  ],
  "images": [
    {
      "uri": "textures/rover_red.1001_baseColor.jpeg"
    },
    {
      "uri": "textures/rover_red.1002_baseColor.jpeg"
    },
    {
      "uri": "textures/rover_red.1003_baseColor.jpeg"
    }
  ],
  "materials": [
    {
      "doubleSided": true,
      "extensions": {
        "KHR_materials_unlit": {}
      },
      "name": "rover_red.1001",
      "pbrMetallicRoughness": {
        "baseColorTexture": {
          "index": 0
        },
        "metallicFactor": 0.0
      }
    },
    {
      "doubleSided": true,
      "extensions": {
        "KHR_materials_unlit": {}
      },
      "name": "rover_red.1002",
      "pbrMetallicRoughness": {
        "baseColorTexture": {
          "index": 1
        },
        "metallicFactor": 0.0
      }
    },
    {
      "doubleSided": true,
      "extensions": {
        "KHR_materials_unlit": {}
      },
      "name": "rover_red.1003",
      "pbrMetallicRoughness": {
        "baseColorTexture": {
          "index": 2
        },
        "metallicFactor": 0.0
      }
    }
  ],
  "meshes": [
    {
      "name": "Object_0",
      "primitives": [
        {
          "attributes": {
            "NORMAL": 1,
            "POSITION": 0,
            "TEXCOORD_0": 2
          },
          "indices": 3,
          "material": 0,
          "mode": 4
        }
      ]
    },
    {
      "name": "Object_1",
      "primitives": [
        {
          "attributes": {
            "NORMAL": 5,
            "POSITION": 4,
            "TEXCOORD_0": 6
          },
          "indices": 7,
          "material": 1,
          "mode": 4
        }
      ]
    },
    {
      "name": "Object_2",
      "primitives": [
        {
          "attributes": {
            "NORMAL": 9,
            "POSITION": 8,
            "TEXCOORD_0": 10
          },
          "indices": 11,
          "material": 1,
          "mode": 4
        }
      ]
    },
    {
      "name": "Object_3",
      "primitives": [
        {
          "attributes": {
            "NORMAL": 13,
            "POSITION": 12,
            "TEXCOORD_0": 14
          },
          "indices": 15,
          "material": 2,
          "mode": 4
        }
      ]
    },
    {
      "name": "Object_4",
      "primitives": [
        {
          "attributes": {
            "NORMAL": 17,
            "POSITION": 16,
            "TEXCOORD_0": 18
          },
          "indices": 19,
          "material": 2,
          "mode": 4
        }
      ]
    }
  ],
  "nodes": [
    {
      "children": [
        1
      ],
      "matrix": [
        1.0,
        0.0,
        0.0,
        0.0,
        0.0,
        -1.0,
        -2.220446049250313e-16,
        0.0,
        0.0,
        2.220446049250313e-16,
        -1.0,
        0.0,
        0.0,
        13.083309173583984,
        1.2723870277404814,
        1.0
      ],
      "name": "Sketchfab_model"
    },
    {
      "children": [
        2,
        3,
        4,
        5,
        6
      ],
      "name": "rover red.obj.cleaner.materialmerger.gles"
    },
    {
      "mesh": 0,
      "name": "Object_2"
    },
    {
      "mesh": 1,
      "name": "Object_3"
    },
    {
      "mesh": 2,
      "name": "Object_4"
    },
    {
      "mesh": 3,
      "name": "Object_5"
    },
    {
      "mesh": 4,
      "name": "Object_6"
    }
  ],
  "samplers": [
    {
      "magFilter": 9729,
      "minFilter": 9987,
      "wrapS": 10497,
      "wrapT": 10497
    }
  ],
  "scene": 0,
  "scenes": [
    {
      "name": "Sketchfab_Scene",
      "nodes": [
        0
      ]
    }
  ],
  "textures": [
    {
      "sampler": 0,
      "source": 0
    },
    {
      "sampler": 0,
      "source": 1
    },
    {
      "sampler": 0,
      "source": 2
    }
  ]
}
